<svg width="24" height="24" viewBox="0 0 24 24" fill="none" xmlns="http://www.w3.org/2000/svg">
<path fill-rule="evenodd" clip-rule="evenodd" d="M4.42204 4.3986C8.62017 0.200466 15.4267 0.200466 19.6248 4.3986C23.823 8.59674 23.823 15.4033 19.6248 19.6014C18.3912 20.835 16.4959 21.963 14.3839 22.4682C12.2615 22.9759 9.86459 22.8653 7.70144 21.5286C7.5892 21.4592 7.51734 21.4149 7.46306 21.3832C7.42621 21.3618 7.40983 21.3536 7.40649 21.3519C7.37003 21.3377 7.35776 21.3362 7.35669 21.336C7.35497 21.3357 7.34132 21.3336 7.29965 21.3368C7.30693 21.3362 7.29953 21.3359 7.25527 21.3459C7.20826 21.3566 7.14639 21.3725 7.04199 21.3996L7.0155 21.4064C6.4091 21.5636 5.91717 21.6911 5.52114 21.7658C5.12285 21.8409 4.73632 21.881 4.36448 21.8053C3.28322 21.5852 2.43819 20.7402 2.21814 19.659C2.14246 19.2871 2.18253 18.9006 2.25763 18.5023C2.33231 18.1063 2.45982 17.6143 2.617 17.0079L2.62387 16.9814C2.65094 16.877 2.66687 16.8152 2.6775 16.7682C2.68748 16.724 2.68715 16.7166 2.6866 16.7239C2.68976 16.6827 2.68762 16.6689 2.68728 16.6668C2.68698 16.6647 2.68503 16.6517 2.67131 16.6166C2.6696 16.6132 2.66143 16.597 2.64011 16.5606C2.60858 16.5068 2.56441 16.4356 2.49511 16.3241C1.15653 14.1701 1.01721 11.7994 1.51481 9.68213C2.00983 7.57586 3.14237 5.67827 4.42204 4.3986ZM18.5642 5.45926C14.9518 1.84691 9.09505 1.84691 5.4827 5.45926C4.39398 6.54798 3.40416 8.19937 2.97503 10.0253C2.54849 11.8402 2.68323 13.785 3.76913 15.5323C3.77898 15.5482 3.78885 15.564 3.79872 15.5798C3.90213 15.7457 4.0045 15.91 4.06314 16.0572C4.16805 16.3207 4.20389 16.5559 4.1822 16.8386C4.17011 16.9962 4.12747 17.1598 4.0866 17.3166C4.08301 17.3304 4.07943 17.3441 4.07589 17.3578C3.91021 17.997 3.79584 18.4399 3.73166 18.7803C3.66681 19.1241 3.67147 19.2786 3.68801 19.3598C3.78803 19.8513 4.17214 20.2354 4.66362 20.3354C4.74485 20.352 4.89931 20.3566 5.24318 20.2918C5.58357 20.2276 6.02643 20.1132 6.66564 19.9475C6.67934 19.944 6.69309 19.9404 6.70689 19.9368C6.86359 19.896 7.02697 19.8534 7.18408 19.8413C7.46644 19.8194 7.69992 19.8547 7.96321 19.959C8.11011 20.0172 8.27502 20.1194 8.44202 20.2229C8.45799 20.2328 8.47399 20.2427 8.48999 20.2526C10.2366 21.332 12.2033 21.4475 14.0349 21.0093C15.877 20.5687 17.5261 19.5788 18.5642 18.5407C22.1765 14.9284 22.1765 9.07161 18.5642 5.45926Z" fill="#2D264B"/>
<path d="M9.05288 11.8578C9.05288 12.4101 8.60517 12.8578 8.05288 12.8578C7.5006 12.8578 7.05288 12.4101 7.05288 11.8578C7.05288 11.3055 7.5006 10.8578 8.05288 10.8578C8.60517 10.8578 9.05288 11.3055 9.05288 11.8578Z" fill="#2D264B"/>
<path d="M13.0529 11.8578C13.0529 12.4101 12.6052 12.8578 12.0529 12.8578C11.5006 12.8578 11.0529 12.4101 11.0529 11.8578C11.0529 11.3055 11.5006 10.8578 12.0529 10.8578C12.6052 10.8578 13.0529 11.3055 13.0529 11.8578Z" fill="#2D264B"/>
<path d="M17.0529 11.8578C17.0529 12.4101 16.6052 12.8578 16.0529 12.8578C15.5006 12.8578 15.0529 12.4101 15.0529 11.8578C15.0529 11.3055 15.5006 10.8578 16.0529 10.8578C16.6052 10.8578 17.0529 11.3055 17.0529 11.8578Z" fill="#2D264B"/>
</svg>
