<svg width="15" height="15" viewBox="0 0 15 15" fill="none" xmlns="http://www.w3.org/2000/svg">
<path d="M7.18125 3.90625C9.15 3.90625 10.775 5.53125 10.775 7.5C10.775 9.5 9.15 11.0938 7.18125 11.0938C5.18125 11.0938 3.5875 9.5 3.5875 7.5C3.5875 5.53125 5.18125 3.90625 7.18125 3.90625ZM7.18125 9.84375C8.4625 9.84375 9.49375 8.8125 9.49375 7.5C9.49375 6.21875 8.4625 5.1875 7.18125 5.1875C5.86875 5.1875 4.8375 6.21875 4.8375 7.5C4.8375 8.8125 5.9 9.84375 7.18125 9.84375ZM11.7438 3.78125C11.7438 4.25 11.3688 4.625 10.9 4.625C10.4313 4.625 10.0563 4.25 10.0563 3.78125C10.0563 3.3125 10.4313 2.9375 10.9 2.9375C11.3688 2.9375 11.7438 3.3125 11.7438 3.78125ZM14.1188 4.625C14.1813 5.78125 14.1813 9.25 14.1188 10.4062C14.0563 11.5312 13.8063 12.5 12.9938 13.3438C12.1813 14.1562 11.1813 14.4062 10.0563 14.4688C8.9 14.5312 5.43125 14.5312 4.275 14.4688C3.15 14.4062 2.18125 14.1562 1.3375 13.3438C0.525 12.5 0.275 11.5312 0.2125 10.4062C0.15 9.25 0.15 5.78125 0.2125 4.625C0.275 3.5 0.525 2.5 1.3375 1.6875C2.18125 0.875 3.15 0.625 4.275 0.5625C5.43125 0.5 8.9 0.5 10.0563 0.5625C11.1813 0.625 12.1813 0.875 12.9938 1.6875C13.8063 2.5 14.0563 3.5 14.1188 4.625ZM12.6188 11.625C12.9938 10.7188 12.9 8.53125 12.9 7.5C12.9 6.5 12.9938 4.3125 12.6188 3.375C12.3688 2.78125 11.9 2.28125 11.3063 2.0625C10.3688 1.6875 8.18125 1.78125 7.18125 1.78125C6.15 1.78125 3.9625 1.6875 3.05625 2.0625C2.43125 2.3125 1.9625 2.78125 1.7125 3.375C1.3375 4.3125 1.43125 6.5 1.43125 7.5C1.43125 8.53125 1.3375 10.7188 1.7125 11.625C1.9625 12.25 2.43125 12.7188 3.05625 12.9688C3.9625 13.3438 6.15 13.25 7.18125 13.25C8.18125 13.25 10.3688 13.3438 11.3063 12.9688C11.9 12.7188 12.4 12.25 12.6188 11.625Z" fill="white"/>
</svg>
