<svg width="18" height="13" viewBox="0 0 18 13" fill="none" xmlns="http://www.w3.org/2000/svg">
<path d="M17.3094 2.40625C17.6844 3.71875 17.6844 6.53125 17.6844 6.53125C17.6844 6.53125 17.6844 9.3125 17.3094 10.6562C17.1219 11.4062 16.5281 11.9688 15.8094 12.1562C14.4656 12.5 9.15313 12.5 9.15313 12.5C9.15313 12.5 3.80938 12.5 2.46563 12.1562C1.74688 11.9688 1.15313 11.4062 0.965626 10.6562C0.590626 9.3125 0.590626 6.53125 0.590626 6.53125C0.590626 6.53125 0.590626 3.71875 0.965626 2.40625C1.15313 1.65625 1.74688 1.0625 2.46563 0.875C3.80938 0.5 9.15313 0.5 9.15313 0.5C9.15313 0.5 14.4656 0.5 15.8094 0.875C16.5281 1.0625 17.1219 1.65625 17.3094 2.40625ZM7.40313 9.0625L11.8406 6.53125L7.40313 4V9.0625Z" fill="white"/>
</svg>
